<?xml version="1.0" encoding="utf-8"?>
<!-- Generator: Adobe Illustrator 23.0.4, SVG Export Plug-In . SVG Version: 6.00 Build 0)  -->
<svg version="1.1" id="prclip_x5F_app_x5F_RGB" xmlns="http://www.w3.org/2000/svg" xmlns:xlink="http://www.w3.org/1999/xlink"
	 x="0px" y="0px" viewBox="0 0 61.8 60.3" style="enable-background:new 0 0 61.8 60.3;" xml:space="preserve">
<style type="text/css">
	.st0{fill-rule:evenodd;clip-rule:evenodd;fill:url(#SVGID_2_);}
	.st1{clip-path:url(#SVGID_4_);fill-rule:evenodd;clip-rule:evenodd;fill:url(#SVGID_5_);}
	.st2{fill-rule:evenodd;clip-rule:evenodd;fill:#E788FF;}
	.st3{fill:#E4C9E1;}
	.st4{fill:#E788FF;}
</style>
<g>
	<g>
		<g>
			
				<radialGradient id="SVGID_2_" cx="30.8992" cy="205.8593" r="28.6262" gradientTransform="matrix(1 0 0 -1 0 236)" gradientUnits="userSpaceOnUse">
				<stop  offset="0" style="stop-color:#39261A"/>
				<stop  offset="0.7595" style="stop-color:#1D0C04"/>
			</radialGradient>
			<path id="SVGID_1_" class="st0" d="M10.8,1.9c-7.2,0-8.9,4.3-8.9,11.6l0,35.2c0,7.3,2.3,9.7,9.5,9.7h38.8c7.2,0,9.7-2.4,9.7-9.7
				V12.2c0-7.3-2.7-10.2-9.9-10.2C50,1.9,10.8,1.9,10.8,1.9z"/>
		</g>
		<g>
			<defs>
				<path id="SVGID_3_" d="M10.8,1.9c-7.2,0-8.9,4.3-8.9,11.6l0,35.2c0,7.3,2.3,9.7,9.5,9.7h38.8c7.2,0,9.7-2.4,9.7-9.7V12.2
					c0-7.3-2.7-10.2-9.9-10.2C50,1.9,10.8,1.9,10.8,1.9z"/>
			</defs>
			<clipPath id="SVGID_4_">
				<use xlink:href="#SVGID_3_"  style="overflow:visible;"/>
			</clipPath>
			
				<radialGradient id="SVGID_5_" cx="25.1382" cy="215.1128" r="37.164" gradientTransform="matrix(1 0 0 -1 0 236)" gradientUnits="userSpaceOnUse">
				<stop  offset="0" style="stop-color:#4B2D4F"/>
				<stop  offset="0.7669" style="stop-color:#180024"/>
			</radialGradient>
			<rect x="2.4" y="2.4" class="st1" width="10px" height="10px"/>
		</g>
	</g>
	<path class="st2" d="M0,11.1v38.2c0,6.1,4.7,11,10.8,11h40c6.1,0,11-4.9,11-11V11c0-6.1-4.9-11-11-11h-40C4.7,0,0,4.9,0,11.1
		L0,11.1z M50,2.6c4.9,0,9.2,4,9.2,9v36.7c0,4.9-4,9.4-8.9,9.4H11.5c-4.9,0-8.9-4.2-8.9-9.1l0-36.5c0-4.9,4-9.5,8.9-9.5L50,2.6
		L50,2.6z"/>
	<g>
		<g>
			<path class="st3" d="M36.4,37.3c-0.6,0-1.1-0.5-1.1-1.3V24.5c0-0.8,0.4-1.3,1.1-1.3c0.2,0,0.5,0.1,0.7,0.2l10.4,5.8
				c0.5,0.3,0.7,0.6,0.7,1s-0.3,0.8-0.7,1l-10.4,5.8C36.9,37.2,36.6,37.3,36.4,37.3z M36.4,23.9c-0.3,0-0.4,0.3-0.4,0.6V36
				c0,0.2,0,0.6,0.4,0.6c0.1,0,0.3,0,0.4-0.1l10.4-5.8c0.2-0.1,0.3-0.3,0.3-0.4c0-0.1-0.1-0.3-0.4-0.4l-10.4-5.8
				C36.6,24,36.5,23.9,36.4,23.9z"/>
		</g>
		<path class="st4" d="M19,45.9c0,0.8-0.7,1.5-1.5,1.5s-1.5-0.7-1.5-1.5V14.6c0-0.8,0.7-1.5,1.5-1.5s1.5,0.7,1.5,1.5V45.9z"/>
		<path class="st4" d="M25.5,42.3c0,0.8-0.7,1.5-1.5,1.5c-0.8,0-1.5-0.7-1.5-1.5v-24c0-0.8,0.7-1.5,1.5-1.5c0.8,0,1.5,0.7,1.5,1.5
			V42.3z"/>
		<path class="st4" d="M32.1,38.6c0,0.8-0.7,1.5-1.5,1.5s-1.5-0.7-1.5-1.5V21.9c0-0.8,0.7-1.5,1.5-1.5s1.5,0.7,1.5,1.5V38.6z"/>
	</g>
</g>
</svg>
